# xmcd
#
# Track frame offsets:
#	150
#	23275
#	38969
#	56566
#	82224
#	103795
#	123940
#	148480
#	171169
#	196388
#	216114
#	229539
#	250184
#	271101
#
# Disc length: 3919 seconds
#
# Revision: 6
# Processed by: cddbd v1.5.2PL0 Copyright (c) Steve Scherf et al.
# Submitted via: EasyCDDAExtractor 2010.6.0.0
#
DISCID=c30f4d0e
DTITLE=Cassiane - Recompensa
DYEAR=2001
DGENRE=Gospel
TTITLE0=Muita Uncao
TTITLE1=Deus Faz
TTITLE2=Recompensa
TTITLE3=Dia Inesquecivel
TTITLE4=Aqui Tem Gloria
TTITLE5=Nao Reclame
TTITLE6=500 Graus
TTITLE7=Eis-Me Aqui
TTITLE8=Razao Do Meu Viver
TTITLE9=Minha Bencao
TTITLE10=Vitoria Pra Voce
TTITLE11=Deus Responde
TTITLE12=Vai, Povo Meu
TTITLE13=Cristo Esta Comigo
EXTD=
EXTT0=
EXTT1=
EXTT2=
EXTT3=
EXTT4=
EXTT5=
EXTT6=
EXTT7=
EXTT8=
EXTT9=
EXTT10=
EXTT11=
EXTT12=
EXTT13=
PLAYORDER=
